<svg xmlns="http://www.w3.org/2000/svg" width="119.66" height="40" viewBox="0 0 119.66 40"><defs><style>.cls-1{fill:#fff;}</style></defs><g id="Layer_2" data-name="Layer 2"><g id="livetype"><path class="cls-1" d="M119.66,8.44c0-.3,0-.61,0-.92a13.39,13.39,0,0,0-.18-2,6.72,6.72,0,0,0-.62-1.9,6.53,6.53,0,0,0-2.8-2.8,6.8,6.8,0,0,0-1.91-.63,13.39,13.39,0,0,0-2-.18H7.52a13.39,13.39,0,0,0-2,.18,6.64,6.64,0,0,0-1.9.63A6.07,6.07,0,0,0,2,2,6.07,6.07,0,0,0,.82,3.62a6.74,6.74,0,0,0-.63,1.9,12.18,12.18,0,0,0-.17,2c0,.31,0,.62,0,.92V31.56c0,.31,0,.61,0,.92a12.18,12.18,0,0,0,.17,2,6.7,6.7,0,0,0,.63,1.91A6,6,0,0,0,2,38a6.07,6.07,0,0,0,1.62,1.18,6.64,6.64,0,0,0,1.9.63,13.39,13.39,0,0,0,2,.18H112.14a13.39,13.39,0,0,0,2-.18,6.8,6.8,0,0,0,1.91-.63A6.24,6.24,0,0,0,117.67,38a6.31,6.31,0,0,0,1.8-3.52,13.39,13.39,0,0,0,.18-2c0-.31,0-.61,0-.92V8.44Zm-.87,22c0,.37,0,.72,0,1.08v.93a12.72,12.72,0,0,1-.17,1.85,5.73,5.73,0,0,1-.54,1.67,5.6,5.6,0,0,1-1,1.39,5.41,5.41,0,0,1-1.4,1A5.69,5.69,0,0,1,114,39a11.8,11.8,0,0,1-1.87.16l-.9,0H8.44l-.9,0A11.7,11.7,0,0,1,5.67,39,5.89,5.89,0,0,1,4,38.4a5.5,5.5,0,0,1-1.39-1,5.19,5.19,0,0,1-1-1.4,5.69,5.69,0,0,1-.55-1.66,13,13,0,0,1-.16-1.87c0-.21,0-.91,0-.91V8.44s0-.69,0-.89a13,13,0,0,1,.16-1.87A5.69,5.69,0,0,1,1.6,4a5.38,5.38,0,0,1,1-1.4A5.59,5.59,0,0,1,4,1.6a5.69,5.69,0,0,1,1.66-.55A13,13,0,0,1,7.54.89H112.13a13,13,0,0,1,1.86.16,5.85,5.85,0,0,1,1.67.55A5.58,5.58,0,0,1,118.07,4a5.92,5.92,0,0,1,.54,1.65,13.14,13.14,0,0,1,.17,1.88v.89c0,.38,0,.74,0,1.1Z"/><path class="cls-1" d="M25,19.89a5.14,5.14,0,0,1,2.45-4.32,5.27,5.27,0,0,0-4.15-2.24c-1.75-.19-3.44,1-4.33,1s-2.28-1-3.75-1a5.54,5.54,0,0,0-4.66,2.83c-2,3.49-.51,8.6,1.42,11.42,1,1.38,2.09,2.92,3.56,2.86s2-.92,3.73-.92,2.23.92,3.73.89,2.52-1.39,3.45-2.78A11.09,11.09,0,0,0,28,24.46,4.94,4.94,0,0,1,25,19.89Z"/><path class="cls-1" d="M23.32,7.85A5.14,5.14,0,0,0,20,9.57a4.86,4.86,0,0,0-1.19,3.5,4.27,4.27,0,0,0,3.37-1.59A5.11,5.11,0,0,0,23.32,7.85Z"/><path class="cls-1" d="M38.91,18.08,34.43,30.5h2l1.14-3.36H42.3l1.14,3.36h2L41,18.08Zm-.85,7.51,1.85-5.45H40l1.85,5.45Z"/><path class="cls-1" d="M51.35,21.35A3.21,3.21,0,0,0,48.46,23h0V21.44h-1.8V33.49h1.86V29h0a3.08,3.08,0,0,0,2.85,1.58c2.27,0,3.78-1.81,3.78-4.62S53.64,21.35,51.35,21.35ZM50.86,29c-1.42,0-2.38-1.23-2.38-3.05s1-3,2.38-3,2.39,1.21,2.39,3S52.3,29,50.86,29Z"/><path class="cls-1" d="M61.31,21.35A3.19,3.19,0,0,0,58.43,23h0V21.44H56.6V33.49h1.85V29h0a3.06,3.06,0,0,0,2.85,1.58c2.27,0,3.77-1.81,3.77-4.62S63.61,21.35,61.31,21.35ZM60.82,29c-1.42,0-2.37-1.23-2.37-3.05s.95-3,2.37-3,2.39,1.21,2.39,3S62.27,29,60.82,29Z"/><path class="cls-1" d="M75.73,23.48l-1.37-.33c-1.6-.4-2.26-.92-2.26-1.79,0-1.1,1-1.86,2.53-1.86s2.52.75,2.63,2h1.88c-.06-2.15-1.86-3.62-4.49-3.62s-4.52,1.47-4.52,3.62c0,1.73,1.06,2.79,3.34,3.34l1.61.39c1.61.4,2.29,1,2.29,1.94s-1.13,1.92-2.69,1.92-2.83-.81-3-2h-1.9c.12,2.24,2,3.66,4.73,3.66,2.94,0,4.79-1.45,4.79-3.78C79.33,25.11,78.28,24.09,75.73,23.48Z"/><path class="cls-1" d="M83.35,19.3H81.48v2.14H80.16v1.47h1.32V28.1c0,1.76.71,2.45,2.55,2.45a5.12,5.12,0,0,0,1-.09V29c-.2,0-.41,0-.61,0-.76,0-1.1-.36-1.1-1.13v-5h1.72V21.44H83.35Z"/><path class="cls-1" d="M90.36,21.33c-2.62,0-4.3,1.79-4.3,4.64s1.67,4.64,4.3,4.64,4.29-1.78,4.29-4.64S93,21.33,90.36,21.33Zm0,7.75c-1.51,0-2.4-1.15-2.4-3.11s.89-3.11,2.4-3.11S92.76,24,92.76,26,91.86,29.08,90.36,29.08Z"/><path class="cls-1" d="M98,23h0V21.44H96.19V30.5H98V25.13c0-.1,0-.2,0-.29a1.88,1.88,0,0,1,2-1.8,2.44,2.44,0,0,1,.84.12V21.42a2.79,2.79,0,0,0-.64-.07A2.16,2.16,0,0,0,98,23Z"/><path class="cls-1" d="M105.41,21.33c-2.55,0-4.19,1.84-4.19,4.68s1.63,4.6,4.26,4.6c2,0,3.65-1.13,3.9-2.77h-1.76a2,2,0,0,1-2.09,1.27h-.3a2.36,2.36,0,0,1-2.14-2.55v-.12h6.4V25.8C109.49,23.05,107.91,21.33,105.41,21.33Zm-2.31,3.8h0a2.29,2.29,0,0,1,2.31-2.28h.16a2.18,2.18,0,0,1,2.06,2.29Z"/><path class="cls-1" d="M40.63,11.7a2.29,2.29,0,0,0,0-.52,2.65,2.65,0,0,0-2.82-2.45H35.67v6h2.16C39.6,14.7,40.63,13.6,40.63,11.7Zm-4,2.15V9.57h1.12a2.17,2.17,0,0,1,.36,0,1.88,1.88,0,0,1,1.61,2.12,2.42,2.42,0,0,1,0,.38,1.87,1.87,0,0,1-2,1.76Z"/><path class="cls-1" d="M43.6,10.12a2.13,2.13,0,0,0-1.92,2.32,2.94,2.94,0,0,0,0,.42,2.14,2.14,0,0,0,4.25-.42,2.67,2.67,0,0,0,0-.4A2.14,2.14,0,0,0,43.6,10.12ZM43.81,14c-.78,0-1.21-.56-1.21-1.55S43,10.9,43.81,10.9s1.2.57,1.2,1.54S44.58,14,43.81,14Z"/><polygon class="cls-1" points="48.72 14.7 49.65 11.38 49.72 11.38 50.65 14.7 51.57 14.7 52.81 10.2 51.92 10.2 51.12 13.63 51.05 13.63 50.12 10.2 49.27 10.2 48.34 13.63 48.28 13.63 47.47 10.2 46.57 10.2 47.81 14.7 48.72 14.7"/><path class="cls-1" d="M56.79,14.7h.89V11.78a1.69,1.69,0,0,0,0-.32,1.46,1.46,0,0,0-1.57-1.35,1.33,1.33,0,0,0-1.34.8h-.07v-.72h-.86V14.7h.89V11.91a1,1,0,0,1,1.08-1c.65,0,1,.36,1,1.09Z"/><rect class="cls-1" x="59.09" y="8.44" width="0.89" height="6.26"/><path class="cls-1" d="M63.14,10.12a2.13,2.13,0,0,0-1.92,2.32,1.48,1.48,0,0,0,0,.42,2.14,2.14,0,0,0,4.25-.42,2.67,2.67,0,0,0,0-.4A2.15,2.15,0,0,0,63.14,10.12Zm.2,3.87c-.77,0-1.2-.56-1.2-1.55s.43-1.54,1.2-1.54,1.21.57,1.21,1.54S64.11,14,63.34,14Z"/><path class="cls-1" d="M70.18,14.7V11.62c0-.95-.64-1.51-1.77-1.51s-1.74.49-1.84,1.27h.87c.09-.32.44-.5.93-.5s.93.27.93.74V12l-1.22.07c-1.08.07-1.68.53-1.68,1.34a.66.66,0,0,0,0,.14,1.35,1.35,0,0,0,1.49,1.21,1.49,1.49,0,0,0,1.35-.7h.07v.63ZM69.3,13v0a1.06,1.06,0,0,1-1.16.95c-.48,0-.84-.23-.84-.64s.29-.6.91-.65l1.1-.07Z"/><path class="cls-1" d="M73.22,14.77A1.57,1.57,0,0,0,74.63,14h.07v.71h.85V8.44h-.89v2.47H74.6a1.48,1.48,0,0,0-1.38-.79c-1.14,0-1.87.9-1.87,2.32S72.07,14.77,73.22,14.77Zm.25-3.85c.74,0,1.21.59,1.21,1.53S74.22,14,73.47,14s-1.2-.57-1.2-1.53h0C72.27,11.5,72.72,10.92,73.47,10.92Z"/><path class="cls-1" d="M83.48,12.44a2.67,2.67,0,0,0,0-.4,2.13,2.13,0,0,0-4.25.4,2.94,2.94,0,0,0,0,.42,2.14,2.14,0,0,0,4.25-.42Zm-3.33,0c0-1,.43-1.54,1.21-1.54s1.2.57,1.2,1.54S82.12,14,81.36,14,80.15,13.43,80.15,12.44Z"/><path class="cls-1" d="M86.63,10.92c.66,0,1,.36,1,1.09V14.7h.88V11.78a1.67,1.67,0,0,0,0-.32,1.47,1.47,0,0,0-1.57-1.35,1.34,1.34,0,0,0-1.35.8h-.07v-.72h-.85V14.7h.89V12.06a.76.76,0,0,1,0-.15A1,1,0,0,1,86.63,10.92Z"/><path class="cls-1" d="M92.63,13.51c0,.87.39,1.21,1.38,1.21a2.59,2.59,0,0,0,.48,0v-.74l-.34,0c-.44,0-.63-.21-.63-.68V11h1v-.74h-1V9.07h-.89v1.15h-.72V11h.72Z"/><path class="cls-1" d="M96.59,12.07v-.18a1.05,1.05,0,0,1,1.14-1c.63,0,1,.36,1,1.08V14.7h.89V11.79a1.29,1.29,0,0,0,0-.28A1.48,1.48,0,0,0,98,10.11a1.38,1.38,0,0,0-1.37.81h-.07V8.44H95.7V14.7h.89Z"/><path class="cls-1" d="M102.81,14.78a1.82,1.82,0,0,0,2-1.3h-.85a1.1,1.1,0,0,1-1.08.55h-.11a1.18,1.18,0,0,1-1.08-1.28v-.05h3.18v-.31c0-1.42-.76-2.27-2-2.27a1.51,1.51,0,0,0-.3,0,2.07,2.07,0,0,0-1.78,2.33,1.83,1.83,0,0,0,0,.33A2,2,0,0,0,102.81,14.78ZM101.64,12a1.16,1.16,0,0,1,1.16-1.14h.11a1.09,1.09,0,0,1,1,1.16h-2.27Z"/></g></g></svg>